<svg width="54" height="54" viewBox="0 0 54 54" fill="none" xmlns="http://www.w3.org/2000/svg">
<rect width="54" height="54" rx="15" fill="#F1F1F1"/>
<path d="M32.728 13.0917C32.728 9.49603 34.65 7.42624 36.7294 6.87382C37.7374 6.60608 38.8076 6.69675 39.6362 7.211C40.5048 7.75026 41.0137 8.7026 40.9066 9.89246C40.6908 12.2887 40.0983 14.4549 39.5787 17.0532C39.3756 18.0686 39.2931 18.8695 39.3885 19.4294C39.4339 19.6958 39.5126 19.858 39.5946 19.9583C39.6685 20.0488 39.7822 20.1347 39.9973 20.1885C40.2713 20.2569 40.4785 20.2059 40.6637 20.067C40.8737 19.9095 41.1021 19.5989 41.2725 19.0874C41.6657 17.9079 41.862 16.9916 42.0652 16.0097C42.2693 15.0229 42.4804 13.9678 42.9009 12.5659C43.0282 12.1416 43.4704 11.896 43.8981 12.0114C44.3258 12.127 44.5834 12.5618 44.4798 12.9926C44.1259 14.463 43.7864 16.3868 43.9828 18.1494C44.1767 19.8886 44.8738 21.3619 46.506 22.178C46.9098 22.3802 47.074 22.8718 46.872 23.2758C46.6699 23.6795 46.1781 23.8433 45.7741 23.6418C44.0831 22.7962 43.1558 21.4393 42.6916 19.9535C42.4516 20.5253 42.1093 21.0274 41.6449 21.3758C41.0633 21.8119 40.3497 21.9638 39.601 21.7769C39.0804 21.6468 38.6472 21.3852 38.3274 20.9938C38.0158 20.6124 37.8536 20.1588 37.7761 19.7043C37.6258 18.8222 37.7683 17.7618 37.9743 16.732C38.5224 13.9911 39.0714 12.0255 39.2766 9.74545C39.3299 9.1542 39.1016 8.80514 38.7733 8.60127C38.4047 8.37252 37.8179 8.27839 37.1497 8.45585C35.8762 8.79418 34.3643 10.1419 34.3643 13.0917C34.3644 15.2044 34.782 16.7582 35.9016 19.3878C37.0838 22.1638 39.7529 25.576 39.2367 31.5231C38.8781 35.6525 36.0672 37.9805 33.0716 39.542C28.1716 42.0957 21.2458 42.9146 14.5922 42.0828C11.7615 41.7288 9.54513 40.0372 9.0854 37.5876C8.62603 35.1387 10.0012 32.3608 13.4048 29.9651C16.7599 27.6036 20.9635 25.7054 24.9904 25.0304C29.0014 24.3581 33.0059 24.88 35.7274 27.6016C36.0464 27.9212 36.0468 28.4392 35.7274 28.7586C35.4081 29.0778 34.89 29.0775 34.5705 28.7586C32.383 26.571 29.0223 26.0139 25.2605 26.6444C21.5147 27.2724 17.5361 29.0572 14.3461 31.3026C11.2052 33.5134 10.4029 35.73 10.6946 37.2856C10.9864 38.8404 12.451 40.1644 14.7951 40.4576C21.2324 41.2624 27.7978 40.4457 32.3157 38.091C35.1231 36.6277 37.3205 34.6786 37.6067 31.3809C38.0761 25.9718 35.7394 23.1828 34.3963 20.0287C33.2315 17.293 32.728 15.5098 32.728 13.0917Z" fill="black"/>
<path d="M15.931 33.9286C16.1433 33.8851 16.3463 33.9147 16.5078 33.9766C16.721 34.0582 16.8754 34.1936 16.9633 34.2802C17.0596 34.3752 17.136 34.4727 17.187 34.5423C17.212 34.5764 17.2376 34.6147 17.2557 34.6414L17.3021 34.6877C17.3242 34.7103 17.3936 34.7796 17.4523 34.8827C17.5176 34.9975 17.5983 35.2053 17.5497 35.4643C17.5031 35.7124 17.3628 35.8708 17.2765 35.9485C17.2642 35.9596 17.2492 35.9671 17.2365 35.9773C17.1144 36.2144 16.9183 36.3931 16.7076 36.4903C16.6389 36.5219 16.5692 36.5418 16.5014 36.5558C16.2609 36.7211 15.9982 36.7465 15.8191 36.73C15.7453 36.7231 15.6254 36.7057 15.4963 36.6517C15.4418 36.6288 15.3709 36.5885 15.2949 36.5318C15.1924 36.494 15.0244 36.4189 14.8875 36.249C14.5858 35.8739 14.6878 35.4967 14.8123 35.2678C14.8127 34.9825 14.875 34.6059 15.1591 34.2866L15.3221 34.138C15.4929 34.01 15.6875 33.9441 15.8782 33.9286C15.896 33.9272 15.9137 33.9292 15.931 33.9286ZM16.185 35.426L16.2154 35.4228L16.2106 35.41L16.185 35.426ZM16.2154 35.4228L16.185 35.426L16.2106 35.41L16.2154 35.4228Z" fill="black"/>
</svg>
